<svg width="24" height="24" fill="none" xmlns="http://www.w3.org/2000/svg">
    <path fill-rule="evenodd" clip-rule="evenodd" d="M23.218 11.471l-5.52-10.308a2.17 2.17 0 00-2.977-.887L4.618 5.924c-.454.26-.879.716-1.072 1.362l-2.711 9.44c-.325 1.13.31 2.314 1.42 2.645l15.925 4.542c1.108.332 2.27-.317 2.596-1.447l2.634-9.257c.171-.544.075-1.214-.192-1.738z" fill="#00ADE6"/>
    <path fill-rule="evenodd" clip-rule="evenodd" d="M13.379 6.035s-.009 4.29-.001 4.28l.202-.29c.841-1.207 1.657-2.321 3.092-2.321 1.716-.001 2.646 1.427 2.652 2.629v.532l-.008 7.163H17.39l-.009-7.284c0-1-.808-.998-.82-.998-.65 0-1.85 1.624-3.183 3.429v4.855l-1.947.002-.003-2.247s-1.288 2.248-3.217 2.25c-2.188 0-2.93-1.496-2.936-5.08-.003-3.415.484-5.242 2.83-5.244 1.783-.002 3.316 2.583 3.316 2.583V8.657l1.958-2.622zM8.132 9.74c-.896.002-.974.943-.971 3.212.003 2.27.126 3.155.969 3.155 1.144-.002 2.948-2.897 2.948-2.897s-1.79-3.47-2.946-3.47z" fill="#fff"/>
</svg>
